<?xml version="1.0" encoding="utf-8"?>
<!-- Generator: Adobe Illustrator 23.0.1, SVG Export Plug-In . SVG Version: 6.00 Build 0)  -->
<svg version="1.1" id="Layer_1" xmlns="http://www.w3.org/2000/svg" xmlns:xlink="http://www.w3.org/1999/xlink" x="0px" y="0px"
	 viewBox="0 0 1366 768" style="enable-background:new 0 0 1366 768;" xml:space="preserve">
<style type="text/css">
	.st0{display:none;}
	.st1{display:inline;}
	.st2{clip-path:url(#SVGID_2_);}
	.st3{clip-path:url(#SVGID_2_);fill:#FAFAFA;}
	.st4{clip-path:url(#SVGID_2_);fill:#3E3E3E;}
	.st5{fill:#947264;}
</style>
<g class="st0">
	<defs>
		
			<rect id="SVGID_1_" x="1.6" y="183.1" transform="matrix(-1 -1.224647e-16 1.224647e-16 -1 507.1256 654.1582)" width="504" height="288"/>
	</defs>
	<use xlink:href="#SVGID_1_"  style="overflow:visible;fill:#D9D9D9;"/>
	<clipPath id="SVGID_2_" class="st1">
		<use xlink:href="#SVGID_1_"  style="display:none;overflow:visible;"/>
	</clipPath>
	<g class="st2">
		
			<image style="display:inline;overflow:visible;" width="641" height="385" xlink:href="6B6E1C3.png"  transform="matrix(1 0 0 1 -47 134)">
		</image>
	</g>
	<path class="st3" d="M576.3,417.2c-9.9,6.9-24.4,1.9-32.3-7.3c-7.9-9.1-11.2-21.2-15.5-32.5c-4.3-11.3-10.4-23-21.3-28.2
		c-20.3-9.9-44.9,7.2-66.6,1c-15.2-4.3-24.8-18.8-36.9-29c-17.9-15.3-43.1-21.6-66-16.6c-23,5-43.3,21.2-53.2,42.5
		c-12.3,26.4-9.8,59.9-29.3,81.6c-16.4,18.2-43.8,22.1-68,18.7c-24.2-3.4-47.3-12.8-71.5-16.8c-53.4-8.8-110.6,11.2-146.8,51.4
		V149.4h609.8L576.3,417.2z"/>
	<g class="st2">
		
			<image style="display:inline;overflow:visible;" width="657" height="265" xlink:href="6B6E1C1.png"  transform="matrix(1 0 0 1 -81 145)">
		</image>
	</g>
	<path class="st4" d="M-65.1,376.4c16.6-7.9,35.7-4.1,52.9,2c17.2,6.1,34,14.5,52,15.8c37.7,2.6,72.7-26.4,110.5-24.9
		c19.7,0.8,38.9,9.9,58.4,7.5c25.3-3.1,45.2-24.6,62.4-45.5c17.2-20.9,35.2-43.6,59.8-50.8c37.1-10.8,73.9,17.2,112,21.2
		c19.3,2.1,39-2.1,58.1,1.2c19.2,3.3,39.2,17.7,41,39.2h18.8V160.5H-59.4L-65.1,376.4z"/>
	<g class="st2">
		
			<image style="display:inline;overflow:visible;" width="646" height="190" xlink:href="6B6E1C7.png"  transform="matrix(1 0 0 1 -94 159)">
		</image>
	</g>
</g>
<path class="st5" d="M6.8,679.3c2.5-11.5,15.7-18.1,27.5-17.4c11.8,0.7,22.5,6.9,32.7,12.8c10.2,5.9,21,12,32.8,12.4
	c13.3,0.5,25.7-6.1,38.7-8.9c40.9-8.9,84.8,19.9,124.1,5.4c20.5-7.6,35-25.5,49.8-41.5c14.8-16.1,32.9-31.9,54.7-32.9
	c25.4-1.2,48.8,18.2,74.1,15.8c13.9-1.3,26.5-9.2,40.4-11.2c23.4-3.4,45.4,10,66.2,21.3c20.7,11.3,52.2,56,73.2,44l-6,89H0.8
	L6.8,679.3z"/>
</svg>
